<svg xmlns="http://www.w3.org/2000/svg" xmlns:xlink="http://www.w3.org/1999/xlink" width="154" zoomAndPan="magnify" viewBox="0 0 115.5 38.249999" height="51" preserveAspectRatio="xMidYMid meet" version="1.2"><defs><clipPath id="846f686f50"><path d="M 0.867188 0 L 114.144531 0 L 114.144531 37.515625 L 0.867188 37.515625 Z M 0.867188 0 "/></clipPath><clipPath id="c3dc30b066"><path d="M 29.410156 2.117188 L 48.238281 2.117188 L 48.238281 21 L 29.410156 21 Z M 29.410156 2.117188 "/></clipPath><clipPath id="457a8d9b0a"><path d="M 26.699219 15 L 43.378906 15 L 43.378906 24 L 26.699219 24 Z M 26.699219 15 "/></clipPath></defs><g id="c491d290ad"><g clip-rule="nonzero" clip-path="url(#846f686f50)"><path style=" stroke:none;fill-rule:nonzero;fill:#ffffff;fill-opacity:1;" d="M 0.867188 0 L 114.144531 0 L 114.144531 37.515625 L 0.867188 37.515625 Z M 0.867188 0 "/><path style=" stroke:none;fill-rule:nonzero;fill:#ffffff;fill-opacity:1;" d="M 0.867188 0 L 114.144531 0 L 114.144531 37.515625 L 0.867188 37.515625 Z M 0.867188 0 "/></g><path style="fill:none;stroke-width:1;stroke-linecap:butt;stroke-linejoin:miter;stroke:#ffffff;stroke-opacity:1;stroke-miterlimit:4;" d="M -0.00393718 0.496202 L 99.128474 0.496202 " transform="matrix(0.453505,0,0,0.453505,34.872879,24.786689)"/><g clip-rule="nonzero" clip-path="url(#c3dc30b066)"><path style=" stroke:none;fill-rule:nonzero;fill:#010101;fill-opacity:1;" d="M 47.765625 10.378906 C 47.707031 10.152344 47.648438 9.933594 47.578125 9.714844 C 46.839844 7.367188 45.269531 5.335938 43.222656 3.984375 C 42.070312 3.222656 40.78125 2.679688 39.433594 2.382812 C 39.304688 2.351562 39.171875 2.320312 39.039062 2.304688 C 38.820312 2.273438 38.597656 2.234375 38.375 2.222656 C 37.625 2.160156 36.867188 2.117188 36.117188 2.1875 L 36.242188 2.195312 C 36.242188 2.195312 36.300781 2.199219 36.304688 2.199219 C 36.652344 2.226562 37.449219 2.3125 38.449219 2.582031 C 39.230469 2.792969 40.140625 3.113281 41.054688 3.609375 C 41.066406 3.613281 41.082031 3.621094 41.09375 3.628906 C 42.886719 4.664062 44.359375 6.261719 45.242188 8.144531 C 45.300781 8.269531 45.359375 8.398438 45.410156 8.527344 C 45.410156 8.53125 45.410156 8.53125 45.414062 8.539062 C 45.707031 9.3125 45.925781 10.1875 46.042969 11.167969 C 46.066406 11.476562 46.082031 11.792969 46.074219 12.109375 C 46.054688 13.082031 45.945312 14.0625 45.691406 15.003906 C 45.464844 15.84375 45.132812 17.03125 44.421875 17.597656 C 43.511719 17.003906 42.53125 16.546875 41.609375 15.976562 C 41.339844 15.800781 41.054688 15.660156 40.769531 15.519531 C 41.1875 15.160156 41.796875 15.082031 42.257812 14.792969 C 43.0625 14.292969 43.609375 13.480469 43.863281 12.578125 C 44.050781 11.917969 44.058594 11.238281 44.074219 10.558594 C 44.082031 10.175781 44.074219 9.792969 44.054688 9.414062 C 44.039062 9.089844 44.011719 8.769531 43.980469 8.449219 C 43.941406 8.199219 43.875 7.960938 43.785156 7.730469 C 43.355469 6.425781 42.152344 5.480469 40.808594 5.289062 C 38.851562 5.089844 36.878906 5.269531 34.914062 5.171875 C 34.226562 5.195312 33.53125 5.1875 32.847656 5.277344 C 31.832031 5.359375 30.941406 5.957031 30.320312 6.742188 C 29.347656 7.964844 29.625 9.597656 29.609375 11.050781 C 29.601562 11.410156 29.601562 11.769531 29.597656 12.132812 C 29.601562 12.804688 29.601562 13.476562 29.625 14.152344 C 29.582031 15.570312 29.625 16.988281 29.589844 18.410156 C 29.589844 18.410156 29.589844 18.410156 29.59375 18.414062 C 29.6875 18.496094 29.78125 18.582031 29.871094 18.667969 C 30.339844 19.082031 31.359375 19.890625 32.75 20.519531 C 32.789062 18.820312 32.730469 17.113281 32.773438 15.414062 C 33.460938 15.402344 34.148438 15.398438 34.835938 15.390625 C 35.355469 15.667969 35.855469 15.980469 36.378906 16.242188 C 39.109375 17.859375 41.859375 19.457031 44.648438 20.96875 C 44.746094 21.023438 45.71875 19.769531 45.816406 19.640625 C 46.195312 19.144531 46.539062 18.625 46.828125 18.078125 C 48.074219 15.722656 48.386719 12.945312 47.765625 10.378906 Z M 31.265625 6.605469 C 30.753906 7.046875 30.382812 7.65625 30.28125 8.320312 C 30.261719 8.449219 30.242188 8.578125 30.230469 8.707031 C 30.210938 8.859375 30.207031 9.015625 30.199219 9.167969 C 30.148438 10.8125 30.191406 12.46875 30.195312 14.121094 C 30.195312 14.222656 30.195312 14.328125 30.195312 14.425781 C 30.132812 14.425781 30.066406 14.425781 30 14.425781 C 29.992188 12.945312 29.984375 11.464844 29.972656 9.984375 C 29.964844 9.199219 29.964844 8.386719 30.261719 7.65625 C 30.71875 6.511719 31.828125 5.839844 33.011719 5.652344 C 33.269531 5.609375 33.535156 5.585938 33.796875 5.582031 C 33.839844 5.582031 33.871094 5.582031 33.910156 5.582031 C 34.019531 5.582031 34.121094 5.585938 34.230469 5.589844 L 37.378906 5.675781 L 37.519531 5.679688 C 37.519531 5.679688 37.519531 5.679688 37.511719 5.6875 C 37.507812 5.6875 37.507812 5.6875 37.503906 5.6875 C 37.5 5.691406 37.492188 5.699219 37.480469 5.703125 C 37.398438 5.734375 37.132812 5.8125 36.296875 5.800781 C 36.175781 5.792969 36.054688 5.789062 35.941406 5.796875 L 35.027344 5.78125 L 34.746094 5.777344 C 34.746094 5.777344 34.707031 5.777344 34.707031 5.777344 C 34.707031 5.761719 33.570312 5.785156 33.472656 5.789062 C 33.039062 5.8125 32.605469 5.886719 32.195312 6.042969 C 31.863281 6.171875 31.542969 6.363281 31.265625 6.605469 Z M 32.640625 12.375 L 32.640625 8.253906 L 40.828125 8.253906 L 40.828125 12.375 Z M 32.640625 12.375 "/></g><g clip-rule="nonzero" clip-path="url(#457a8d9b0a)"><path style=" stroke:none;fill-rule:nonzero;fill:#010101;fill-opacity:1;" d="M 34.683594 17.335938 C 34.972656 17.621094 35.308594 17.84375 35.65625 18.054688 C 37.152344 19.097656 38.71875 20.160156 40.148438 21.226562 C 39.070312 21.570312 37.960938 21.820312 36.828125 21.921875 C 35.910156 22 34.980469 21.984375 34.070312 21.832031 C 32.90625 21.640625 31.832031 21.214844 30.828125 20.585938 C 30.742188 20.535156 30.652344 20.480469 30.574219 20.421875 C 29.976562 20.015625 29.429688 19.546875 28.941406 19.019531 C 28.914062 18.988281 28.882812 18.957031 28.859375 18.929688 C 28.226562 18.214844 27.753906 17.476562 27.414062 16.847656 C 27.402344 16.824219 27.390625 16.796875 27.382812 16.777344 C 26.988281 16.03125 26.785156 15.4375 26.714844 15.21875 C 26.707031 15.191406 26.703125 15.175781 26.699219 15.15625 C 26.699219 15.15625 26.761719 15.785156 27.09375 16.707031 C 27.242188 17.113281 27.4375 17.574219 27.707031 18.0625 C 28.039062 18.699219 28.425781 19.304688 28.875 19.867188 C 32.179688 24.066406 38.625 25.007812 43.082031 22.144531 C 40.710938 20.664062 38.242188 19.324219 35.824219 17.910156 C 35.445312 17.699219 35.089844 17.460938 34.683594 17.335938 Z M 34.683594 17.335938 "/></g><path style=" stroke:none;fill-rule:nonzero;fill:#010101;fill-opacity:1;" d="M 43.941406 27.1875 L 44.777344 27.1875 L 44.777344 31.769531 L 43.941406 31.769531 Z M 43.941406 27.1875 "/><path style=" stroke:none;fill-rule:nonzero;fill:#010101;fill-opacity:1;" d="M 48.222656 27.1875 L 48.992188 27.1875 L 48.992188 31.769531 L 48.203125 31.769531 L 47.226562 28.734375 L 47.226562 31.769531 L 46.457031 31.769531 L 46.457031 27.1875 L 47.265625 27.1875 L 48.222656 30.175781 Z M 48.222656 27.1875 "/><path style=" stroke:none;fill-rule:nonzero;fill:#010101;fill-opacity:1;" d="M 52.757812 27.1875 L 52.757812 27.832031 L 51.949219 27.832031 L 51.949219 31.769531 L 51.113281 31.769531 L 51.113281 27.832031 L 50.316406 27.832031 L 50.316406 27.1875 Z M 52.757812 27.1875 "/><path style=" stroke:none;fill-rule:nonzero;fill:#010101;fill-opacity:1;" d="M 54.910156 31.136719 L 56.308594 31.136719 L 56.308594 31.769531 L 54.078125 31.769531 L 54.078125 27.1875 L 56.25 27.1875 L 56.25 27.832031 L 54.910156 27.832031 L 54.910156 29.09375 L 56.039062 29.09375 L 56.039062 29.75 L 54.910156 29.75 Z M 54.910156 31.136719 "/><path style=" stroke:none;fill-rule:nonzero;fill:#010101;fill-opacity:1;" d="M 58.5625 29.988281 L 58.5625 31.769531 L 57.726562 31.769531 L 57.726562 27.1875 L 59.40625 27.1875 C 59.9375 27.1875 60.203125 27.429688 60.203125 27.910156 L 60.203125 29.265625 C 60.203125 29.664062 60.027344 29.898438 59.671875 29.96875 L 60.429688 31.769531 L 59.53125 31.769531 L 58.835938 29.988281 Z M 58.5625 27.832031 L 58.5625 29.371094 L 59.160156 29.371094 C 59.234375 29.371094 59.289062 29.359375 59.320312 29.332031 C 59.351562 29.300781 59.367188 29.246094 59.367188 29.171875 L 59.367188 28.023438 C 59.367188 27.945312 59.351562 27.894531 59.320312 27.871094 C 59.289062 27.847656 59.234375 27.832031 59.160156 27.832031 Z M 58.5625 27.832031 "/><path style=" stroke:none;fill-rule:nonzero;fill:#010101;fill-opacity:1;" d="M 61.820312 27.1875 L 62.65625 27.1875 L 62.65625 31.769531 L 61.820312 31.769531 Z M 61.820312 27.1875 "/><path style=" stroke:none;fill-rule:nonzero;fill:#010101;fill-opacity:1;" d="M 65.097656 27.1875 L 65.976562 27.1875 C 66.511719 27.1875 66.777344 27.429688 66.777344 27.910156 L 66.777344 31.050781 C 66.777344 31.53125 66.511719 31.769531 65.976562 31.769531 L 65.097656 31.769531 C 64.570312 31.769531 64.308594 31.53125 64.308594 31.050781 L 64.308594 27.910156 C 64.308594 27.429688 64.570312 27.1875 65.097656 27.1875 Z M 65.941406 30.9375 L 65.941406 28.023438 C 65.941406 27.945312 65.925781 27.894531 65.894531 27.871094 C 65.867188 27.847656 65.8125 27.832031 65.730469 27.832031 L 65.351562 27.832031 C 65.269531 27.832031 65.210938 27.847656 65.179688 27.871094 C 65.15625 27.894531 65.144531 27.945312 65.144531 28.023438 L 65.144531 30.9375 C 65.144531 31.011719 65.15625 31.066406 65.179688 31.097656 C 65.210938 31.121094 65.269531 31.136719 65.351562 31.136719 L 65.730469 31.136719 C 65.8125 31.136719 65.867188 31.121094 65.894531 31.097656 C 65.925781 31.066406 65.941406 31.011719 65.941406 30.9375 Z M 65.941406 30.9375 "/><path style=" stroke:none;fill-rule:nonzero;fill:#010101;fill-opacity:1;" d="M 69.222656 29.988281 L 69.222656 31.769531 L 68.386719 31.769531 L 68.386719 27.1875 L 70.066406 27.1875 C 70.597656 27.1875 70.863281 27.429688 70.863281 27.910156 L 70.863281 29.265625 C 70.863281 29.664062 70.683594 29.898438 70.332031 29.96875 L 71.089844 31.769531 L 70.1875 31.769531 L 69.496094 29.988281 Z M 69.222656 27.832031 L 69.222656 29.371094 L 69.820312 29.371094 C 69.894531 29.371094 69.945312 29.359375 69.980469 29.332031 C 70.011719 29.300781 70.027344 29.246094 70.027344 29.171875 L 70.027344 28.023438 C 70.027344 27.945312 70.011719 27.894531 69.980469 27.871094 C 69.945312 27.847656 69.894531 27.832031 69.820312 27.832031 Z M 69.222656 27.832031 "/><path style=" stroke:none;fill-rule:nonzero;fill:#010101;fill-opacity:1;" d="M 65.5625 14.324219 L 63.894531 19.941406 L 62.859375 19.941406 L 61.671875 15.691406 L 60.421875 19.941406 L 59.386719 19.949219 L 57.792969 14.324219 L 58.769531 14.324219 L 59.9375 18.898438 L 61.199219 14.324219 L 62.234375 14.324219 L 63.398438 18.878906 L 64.578125 14.324219 Z M 65.5625 14.324219 "/><path style=" stroke:none;fill-rule:nonzero;fill:#010101;fill-opacity:1;" d="M 68.886719 20 C 68.359375 20 67.875 19.875 67.433594 19.628906 C 67 19.382812 66.652344 19.039062 66.402344 18.601562 C 66.148438 18.167969 66.019531 17.671875 66.019531 17.121094 C 66.019531 16.570312 66.148438 16.078125 66.402344 15.640625 C 66.652344 15.207031 67 14.863281 67.433594 14.617188 C 67.875 14.371094 68.359375 14.246094 68.886719 14.246094 C 69.410156 14.246094 69.894531 14.371094 70.328125 14.617188 C 70.769531 14.863281 71.121094 15.207031 71.375 15.640625 C 71.625 16.078125 71.753906 16.570312 71.753906 17.121094 C 71.753906 17.671875 71.625 18.167969 71.375 18.601562 C 71.121094 19.039062 70.769531 19.382812 70.328125 19.628906 C 69.894531 19.875 69.410156 20 68.886719 20 Z M 68.886719 19.199219 C 69.257812 19.199219 69.589844 19.117188 69.882812 18.945312 C 70.171875 18.773438 70.402344 18.53125 70.566406 18.214844 C 70.730469 17.898438 70.8125 17.535156 70.8125 17.121094 C 70.8125 16.703125 70.730469 16.34375 70.566406 16.03125 C 70.402344 15.714844 70.171875 15.476562 69.882812 15.308594 C 69.589844 15.140625 69.257812 15.054688 68.886719 15.054688 C 68.511719 15.054688 68.179688 15.140625 67.890625 15.308594 C 67.597656 15.476562 67.371094 15.714844 67.207031 16.03125 C 67.039062 16.34375 66.960938 16.703125 66.960938 17.121094 C 66.960938 17.535156 67.039062 17.898438 67.207031 18.214844 C 67.371094 18.53125 67.597656 18.773438 67.890625 18.945312 C 68.179688 19.117188 68.511719 19.199219 68.886719 19.199219 Z M 68.886719 19.199219 "/><path style=" stroke:none;fill-rule:nonzero;fill:#010101;fill-opacity:1;" d="M 75.578125 19.941406 L 74.285156 17.691406 L 73.585938 17.691406 L 73.585938 19.941406 L 72.664062 19.941406 L 72.664062 14.324219 L 74.597656 14.324219 C 75.035156 14.324219 75.402344 14.398438 75.699219 14.550781 C 75.996094 14.703125 76.21875 14.90625 76.363281 15.15625 C 76.515625 15.410156 76.59375 15.695312 76.59375 16.003906 C 76.59375 16.371094 76.484375 16.703125 76.269531 17.007812 C 76.0625 17.308594 75.734375 17.507812 75.292969 17.617188 L 76.679688 19.941406 Z M 73.585938 16.960938 L 74.597656 16.960938 C 74.945312 16.960938 75.207031 16.875 75.378906 16.703125 C 75.554688 16.53125 75.644531 16.292969 75.644531 16.003906 C 75.644531 15.714844 75.558594 15.484375 75.386719 15.320312 C 75.214844 15.15625 74.953125 15.074219 74.597656 15.074219 L 73.585938 15.074219 Z M 73.585938 16.960938 "/><path style=" stroke:none;fill-rule:nonzero;fill:#010101;fill-opacity:1;" d="M 78.695312 19.199219 L 80.59375 19.199219 L 80.59375 19.941406 L 77.773438 19.941406 L 77.773438 14.324219 L 78.695312 14.324219 Z M 78.695312 19.199219 "/><path style=" stroke:none;fill-rule:nonzero;fill:#010101;fill-opacity:1;" d="M 83.195312 14.324219 C 83.792969 14.324219 84.320312 14.4375 84.769531 14.664062 C 85.21875 14.890625 85.566406 15.222656 85.8125 15.652344 C 86.058594 16.082031 86.183594 16.582031 86.183594 17.152344 C 86.183594 17.71875 86.058594 18.21875 85.8125 18.640625 C 85.566406 19.058594 85.21875 19.382812 84.769531 19.609375 C 84.320312 19.832031 83.792969 19.941406 83.195312 19.941406 L 81.363281 19.941406 L 81.363281 14.324219 Z M 83.195312 19.191406 C 83.851562 19.191406 84.355469 19.015625 84.703125 18.660156 C 85.058594 18.300781 85.234375 17.796875 85.234375 17.152344 C 85.234375 16.5 85.058594 15.992188 84.703125 15.625 C 84.355469 15.257812 83.851562 15.074219 83.195312 15.074219 L 82.285156 15.074219 L 82.285156 19.191406 Z M 83.195312 19.191406 "/><path style=" stroke:none;fill-rule:nonzero;fill:#010101;fill-opacity:1;" d="M 54.988281 20.351562 L 53.03125 16.800781 L 52.480469 16.800781 L 52.480469 20.351562 L 50.195312 20.351562 L 50.195312 10.945312 L 54.039062 10.945312 C 54.777344 10.945312 55.40625 11.074219 55.925781 11.335938 C 56.449219 11.59375 56.84375 11.949219 57.105469 12.398438 C 57.363281 12.847656 57.492188 13.351562 57.492188 13.90625 C 57.492188 14.53125 57.316406 15.09375 56.960938 15.585938 C 56.613281 16.074219 56.09375 16.417969 55.40625 16.621094 L 57.578125 20.351562 Z M 52.480469 15.179688 L 53.90625 15.179688 C 54.324219 15.179688 54.636719 15.078125 54.84375 14.875 C 55.054688 14.664062 55.15625 14.375 55.15625 14 C 55.15625 13.640625 55.054688 13.359375 54.84375 13.15625 C 54.636719 12.949219 54.324219 12.84375 53.90625 12.84375 L 52.480469 12.84375 Z M 52.480469 15.179688 "/></g></svg>